<?xml version="1.0" encoding="UTF-8" standalone="no"?><!DOCTYPE svg PUBLIC "-//W3C//DTD SVG 1.1//EN" "http://www.w3.org/Graphics/SVG/1.1/DTD/svg11.dtd"><!-- Generated by graphviz version 2.40.1 (20161225.0304)
 --><!-- Title: G Pages: 1 --><svg xmlns="http://www.w3.org/2000/svg" xmlns:xlink="http://www.w3.org/1999/xlink" width="234pt" height="116pt" viewBox="0.00 0.00 233.72 116.00">
<g id="graph0" class="graph" transform="scale(1 1) rotate(0) translate(4 112)">
<title>G</title>
<polygon fill="none" stroke="transparent" points="-4,4 -4,-112 229.7151,-112 229.7151,4 -4,4"/>
<!-- A -->
<g id="node1" class="node">
<title>A</title>
<ellipse fill="none" stroke="currentColor" cx="27" cy="-90" rx="27" ry="18"/>
<text text-anchor="middle" x="27" y="-85.8" font-family="Times,serif" font-size="14.00" fill="currentColor">A</text>
</g>
<!-- Option A -->
<g id="node2" class="node">
<title>Option A</title>
<ellipse fill="none" stroke="currentColor" cx="54" cy="-18" rx="47.4937" ry="18"/>
<text text-anchor="middle" x="54" y="-13.8" font-family="Times,serif" font-size="14.00" fill="currentColor">Option A</text>
</g>
<!-- A&#45;&gt;Option A -->
<g id="edge1" class="edge">
<title>A-&gt;Option A</title>
<path fill="none" stroke="currentColor" d="M33.6742,-72.2022C36.7247,-64.0675 40.4062,-54.2501 43.7932,-45.2181"/>
<polygon fill="currentColor" stroke="currentColor" points="47.0749,-46.4348 47.309,-35.8425 40.5206,-43.9769 47.0749,-46.4348"/>
</g>
<!-- B -->
<g id="node3" class="node">
<title>B</title>
<ellipse fill="none" stroke="currentColor" cx="193" cy="-90" rx="27" ry="18"/>
<text text-anchor="middle" x="193" y="-85.8" font-family="Times,serif" font-size="14.00" fill="currentColor">B</text>
</g>
<!-- Option B -->
<g id="node4" class="node">
<title>Option B</title>
<ellipse fill="none" stroke="currentColor" cx="179" cy="-18" rx="46.9311" ry="18"/>
<text text-anchor="middle" x="179" y="-13.8" font-family="Times,serif" font-size="14.00" fill="currentColor">Option B</text>
</g>
<!-- B&#45;&gt;Option B -->
<g id="edge2" class="edge">
<title>B-&gt;Option B</title>
<path fill="none" stroke="currentColor" d="M189.4672,-71.8314C187.9699,-64.131 186.1895,-54.9743 184.5255,-46.4166"/>
<polygon fill="currentColor" stroke="currentColor" points="187.9248,-45.5614 182.5804,-36.4133 181.0535,-46.8975 187.9248,-45.5614"/>
</g>
<!-- Option -->
<g id="node5" class="node">
<title>Option</title>
<ellipse fill="none" stroke="currentColor" cx="110" cy="-90" rx="37.7217" ry="18"/>
<text text-anchor="middle" x="110" y="-85.8" font-family="Times,serif" font-size="14.00" fill="currentColor">Option</text>
</g>
<!-- Option&#45;&gt;Option A -->
<g id="edge3" class="edge">
<title>Option-&gt;Option A</title>
<path fill="none" stroke="currentColor" d="M96.7288,-72.937C89.9245,-64.1886 81.4979,-53.3545 73.931,-43.6256"/>
<polygon fill="currentColor" stroke="currentColor" points="76.4672,-41.1854 67.565,-35.4407 70.9417,-45.483 76.4672,-41.1854"/>
</g>
<!-- Option&#45;&gt;Option B -->
<g id="edge4" class="edge">
<title>Option-&gt;Option B</title>
<path fill="none" stroke="currentColor" d="M126.0034,-73.3008C134.7594,-64.1641 145.7721,-52.6726 155.487,-42.5353"/>
<polygon fill="currentColor" stroke="currentColor" points="158.2121,-44.7502 162.6042,-35.1086 153.1582,-39.9069 158.2121,-44.7502"/>
</g>
</g>
</svg>