<?xml version="1.0" encoding="UTF-8" standalone="no"?><!DOCTYPE svg PUBLIC "-//W3C//DTD SVG 1.1//EN" "http://www.w3.org/Graphics/SVG/1.1/DTD/svg11.dtd"><!-- Generated by graphviz version 2.40.1 (20161225.0304)
 --><!-- Title: G Pages: 1 --><svg xmlns="http://www.w3.org/2000/svg" xmlns:xlink="http://www.w3.org/1999/xlink" width="194pt" height="116pt" viewBox="0.00 0.00 193.96 116.00">
<g id="graph0" class="graph" transform="scale(1 1) rotate(0) translate(4 112)">
<title>G</title>
<polygon fill="none" stroke="transparent" points="-4,4 -4,-112 189.9612,-112 189.9612,4 -4,4"/>
<!-- Option A -->
<g id="node1" class="node">
<title>Option A</title>
<ellipse fill="none" stroke="currentColor" cx="47.2462" cy="-90" rx="47.4937" ry="18"/>
<text text-anchor="middle" x="47.2462" y="-85.8" font-family="Times,serif" font-size="14.00" fill="currentColor">Option A</text>
</g>
<!-- A -->
<g id="node2" class="node">
<title>A</title>
<ellipse fill="none" stroke="currentColor" cx="47.2462" cy="-18" rx="27" ry="18"/>
<text text-anchor="middle" x="47.2462" y="-13.8" font-family="Times,serif" font-size="14.00" fill="currentColor">A</text>
</g>
<!-- Option A&#45;&gt;A -->
<g id="edge1" class="edge">
<title>Option A-&gt;A</title>
<path fill="none" stroke="currentColor" d="M47.2462,-71.8314C47.2462,-64.131 47.2462,-54.9743 47.2462,-46.4166"/>
<polygon fill="currentColor" stroke="currentColor" points="50.7463,-46.4132 47.2462,-36.4133 43.7463,-46.4133 50.7463,-46.4132"/>
</g>
<!-- Option B -->
<g id="node4" class="node">
<title>Option B</title>
<ellipse fill="none" stroke="currentColor" cx="139.2462" cy="-18" rx="46.9311" ry="18"/>
<text text-anchor="middle" x="139.2462" y="-13.8" font-family="Times,serif" font-size="14.00" fill="currentColor">Option B</text>
</g>
<!-- Option A&#45;&gt;Option B -->
<g id="edge3" class="edge">
<title>Option A-&gt;Option B</title>
<path fill="none" stroke="currentColor" d="M68.1224,-73.6621C80.591,-63.9041 96.612,-51.3659 110.2909,-40.6607"/>
<polygon fill="currentColor" stroke="currentColor" points="112.7346,-43.1927 118.4526,-34.2733 108.4204,-37.6801 112.7346,-43.1927"/>
</g>
<!-- B -->
<g id="node3" class="node">
<title>B</title>
<ellipse fill="none" stroke="currentColor" cx="139.2462" cy="-90" rx="27" ry="18"/>
<text text-anchor="middle" x="139.2462" y="-85.8" font-family="Times,serif" font-size="14.00" fill="currentColor">B</text>
</g>
<!-- B&#45;&gt;Option B -->
<g id="edge2" class="edge">
<title>B-&gt;Option B</title>
<path fill="none" stroke="currentColor" d="M139.2462,-71.8314C139.2462,-64.131 139.2462,-54.9743 139.2462,-46.4166"/>
<polygon fill="currentColor" stroke="currentColor" points="142.7463,-46.4132 139.2462,-36.4133 135.7463,-46.4133 142.7463,-46.4132"/>
</g>
</g>
</svg>