<svg width="44.801" height="89" viewBox="0 0 44.801 89" xmlns="http://www.w3.org/2000/svg"><g id="svgGroup" stroke-linecap="round" fill-rule="evenodd" font-size="9pt" stroke="#000" stroke-width="0.25mm" fill="#000" style="stroke:#000;stroke-width:0.25mm;fill:#000"><path d="M 27.3 89 L 18.5 89 L 19.3 77.8 A 45.733 45.733 0 0 1 11.756 76.676 A 39.296 39.296 0 0 1 8.35 75.7 Q 3.566 74.09 0.353 71.582 A 19.583 19.583 0 0 1 0 71.3 L 4.4 63.9 Q 7.7 66.7 11.85 68.45 A 21.655 21.655 0 0 0 16.944 69.865 A 29.557 29.557 0 0 0 21.5 70.2 Q 26.33 70.2 29.687 68.7 A 12.5 12.5 0 0 0 31.95 67.4 Q 35.8 64.6 35.8 60 A 11.232 11.232 0 0 0 35.527 57.472 A 8.907 8.907 0 0 0 34.7 55.25 A 7.522 7.522 0 0 0 33.616 53.751 Q 32.462 52.486 30.512 51.24 A 24.257 24.257 0 0 0 30.45 51.2 Q 27.3 49.2 21.1 46.9 Q 16.429 45.06 13.085 43.22 A 37.51 37.51 0 0 1 10.55 41.7 Q 6.893 39.293 5.165 36.243 A 12.168 12.168 0 0 1 4.9 35.75 Q 3.2 32.4 3.2 27.8 A 14.754 14.754 0 0 1 7.658 17.142 A 19.325 19.325 0 0 1 7.95 16.85 A 17.593 17.593 0 0 1 14.14 12.996 Q 16.566 12.08 19.493 11.64 A 34.559 34.559 0 0 1 21.5 11.4 L 20.7 0 L 29.5 0 L 28.6 11.4 A 41.143 41.143 0 0 1 34.242 12.164 A 35.048 35.048 0 0 1 36.8 12.8 Q 40.6 13.9 44.2 15.6 L 41 23.1 Q 37.9 21.3 33.7 20 Q 29.5 18.7 24.9 18.7 Q 18.8 18.7 15.3 21.1 A 9.103 9.103 0 0 0 13.307 22.915 A 6.831 6.831 0 0 0 11.8 27.3 A 9.814 9.814 0 0 0 12.066 29.629 A 8.007 8.007 0 0 0 12.8 31.55 Q 13.76 33.325 16.561 35.009 A 21.414 21.414 0 0 0 16.8 35.15 A 30.224 30.224 0 0 0 18.846 36.229 Q 21.581 37.553 25.8 39.1 A 70.975 70.975 0 0 1 30.39 40.929 Q 34.427 42.714 37.15 44.65 A 23.859 23.859 0 0 1 40.026 47.031 Q 41.487 48.461 42.451 49.994 A 13.188 13.188 0 0 1 43.05 51.05 A 16.173 16.173 0 0 1 44.662 56.5 A 20.286 20.286 0 0 1 44.8 58.9 A 19.882 19.882 0 0 1 44.022 64.601 A 15.299 15.299 0 0 1 39.6 71.65 A 22.479 22.479 0 0 1 30.452 76.658 A 29.329 29.329 0 0 1 26.4 77.5 L 27.3 89 Z" vector-effect="non-scaling-stroke"/></g></svg>