<?xml version="1.0" encoding="UTF-8" standalone="no"?><!DOCTYPE svg PUBLIC "-//W3C//DTD SVG 1.1//EN" "http://www.w3.org/Graphics/SVG/1.1/DTD/svg11.dtd"><!-- Generated by graphviz version 2.40.1 (20161225.0304)
 --><!-- Title: G Pages: 1 --><svg xmlns="http://www.w3.org/2000/svg" xmlns:xlink="http://www.w3.org/1999/xlink" width="242pt" height="530pt" viewBox="0.00 0.00 242.00 530.00">
<g id="graph0" class="graph" transform="scale(1 1) rotate(0) translate(4 526)">
<title>G</title>
<polygon fill="#ffffff" stroke="transparent" points="-4,4 -4,-526 238,-526 238,4 -4,4"/>
<!-- 100 -->
<g id="node1" class="node">
<title>100</title>
<ellipse fill="none" stroke="#000000" cx="27" cy="-342" rx="27" ry="18"/>
<text text-anchor="middle" x="27" y="-337.8" font-family="Times,serif" font-size="14.00" fill="#000000">100</text>
</g>
<!-- 101 -->
<g id="node2" class="node">
<title>101</title>
<ellipse fill="none" stroke="#000000" cx="117" cy="-423" rx="27" ry="18"/>
<text text-anchor="middle" x="117" y="-418.8" font-family="Times,serif" font-size="14.00" fill="#000000">101</text>
</g>
<!-- 100&#45;&gt;101 -->
<g id="edge1" class="edge">
<title>100-&gt;101</title>
<path fill="none" stroke="#000000" d="M46.9739,-354.2565C61.9678,-366.3686 82.3968,-384.7638 97.3191,-399.5945"/>
<polygon fill="#000000" stroke="#000000" points="95.0595,-402.2888 104.5627,-406.9728 100.0547,-397.3849 95.0595,-402.2888"/>
</g>
<!-- 99 -->
<g id="node3" class="node">
<title>99</title>
<ellipse fill="none" stroke="#000000" cx="117" cy="-342" rx="27" ry="18"/>
<text text-anchor="middle" x="117" y="-337.8" font-family="Times,serif" font-size="14.00" fill="#000000">99</text>
</g>
<!-- 100&#45;&gt;99 -->
<g id="edge2" class="edge">
<title>100-&gt;99</title>
<path fill="none" stroke="#000000" d="M52.5497,-335.8449C61.4801,-335.2634 71.6762,-335.1082 81.2822,-335.3793"/>
<polygon fill="#000000" stroke="#000000" points="81.2372,-338.8808 91.3865,-335.8408 81.5566,-331.8881 81.2372,-338.8808"/>
</g>
<!-- 50 -->
<g id="node4" class="node">
<title>50</title>
<ellipse fill="none" stroke="#000000" cx="117" cy="-180" rx="27" ry="18"/>
<text text-anchor="middle" x="117" y="-175.8" font-family="Times,serif" font-size="14.00" fill="#000000">50</text>
</g>
<!-- 100&#45;&gt;50 -->
<g id="edge3" class="edge">
<title>100-&gt;50</title>
<path fill="none" stroke="#000000" d="M36.4615,-324.9694C52.22,-296.604 83.9424,-239.5036 102.5256,-206.0539"/>
<polygon fill="#000000" stroke="#000000" points="105.5975,-207.7314 107.3944,-197.29 99.4784,-204.3319 105.5975,-207.7314"/>
</g>
<!-- 500 -->
<g id="node5" class="node">
<title>500</title>
<ellipse fill="none" stroke="#000000" cx="117" cy="-72" rx="27" ry="18"/>
<text text-anchor="middle" x="117" y="-67.8" font-family="Times,serif" font-size="14.00" fill="#000000">500</text>
</g>
<!-- 100&#45;&gt;500 -->
<g id="edge4" class="edge">
<title>100-&gt;500</title>
<path fill="none" stroke="#000000" d="M32.9052,-324.2845C48.2252,-278.3243 89.3338,-154.9987 107.7982,-99.6054"/>
<polygon fill="#000000" stroke="#000000" points="111.2312,-100.3743 111.0731,-89.7807 104.5904,-98.1607 111.2312,-100.3743"/>
</g>
<!-- 101&#45;&gt;100 -->
<g id="edge5" class="edge">
<title>101-&gt;100</title>
<path fill="none" stroke="#000000" d="M96.9842,-410.7096C82.0179,-398.6163 61.6539,-380.2805 46.7516,-365.4759"/>
<polygon fill="#000000" stroke="#000000" points="49.0186,-362.7891 39.5141,-358.1077 44.0247,-367.6944 49.0186,-362.7891"/>
</g>
<!-- 102 -->
<g id="node6" class="node">
<title>102</title>
<ellipse fill="none" stroke="#000000" cx="207" cy="-504" rx="27" ry="18"/>
<text text-anchor="middle" x="207" y="-499.8" font-family="Times,serif" font-size="14.00" fill="#000000">102</text>
</g>
<!-- 101&#45;&gt;102 -->
<g id="edge6" class="edge">
<title>101-&gt;102</title>
<path fill="none" stroke="#000000" d="M133.0902,-437.4812C146.9542,-449.9587 167.1669,-468.1502 182.9519,-482.3567"/>
<polygon fill="#000000" stroke="#000000" points="180.9713,-485.283 190.7457,-489.3711 185.6541,-480.0799 180.9713,-485.283"/>
</g>
<!-- 505 -->
<g id="node7" class="node">
<title>505</title>
<ellipse fill="none" stroke="#000000" cx="207" cy="-450" rx="27" ry="18"/>
<text text-anchor="middle" x="207" y="-445.8" font-family="Times,serif" font-size="14.00" fill="#000000">505</text>
</g>
<!-- 101&#45;&gt;505 -->
<g id="edge7" class="edge">
<title>101-&gt;505</title>
<path fill="none" stroke="#000000" d="M142.07,-430.521C151.5102,-433.3531 162.4169,-436.6251 172.564,-439.6692"/>
<polygon fill="#000000" stroke="#000000" points="171.7915,-443.0915 182.3755,-442.6126 173.803,-436.3867 171.7915,-443.0915"/>
</g>
<!-- 99&#45;&gt;100 -->
<g id="edge12" class="edge">
<title>99-&gt;100</title>
<path fill="none" stroke="#000000" d="M91.3865,-348.1592C82.45,-348.7387 72.2523,-348.8919 62.6491,-348.6188"/>
<polygon fill="#000000" stroke="#000000" points="62.6997,-345.1175 52.5497,-348.1551 62.3786,-352.1101 62.6997,-345.1175"/>
</g>
<!-- 98 -->
<g id="node12" class="node">
<title>98</title>
<ellipse fill="none" stroke="#000000" cx="207" cy="-396" rx="27" ry="18"/>
<text text-anchor="middle" x="207" y="-391.8" font-family="Times,serif" font-size="14.00" fill="#000000">98</text>
</g>
<!-- 99&#45;&gt;98 -->
<g id="edge13" class="edge">
<title>99-&gt;98</title>
<path fill="none" stroke="#000000" d="M137.4224,-354.2534C149.3897,-361.4338 164.7024,-370.6215 177.9143,-378.5486"/>
<polygon fill="#000000" stroke="#000000" points="176.2827,-381.6513 186.6584,-383.7951 179.8842,-375.6488 176.2827,-381.6513"/>
</g>
<!-- 33 -->
<g id="node13" class="node">
<title>33</title>
<ellipse fill="none" stroke="#000000" cx="207" cy="-342" rx="27" ry="18"/>
<text text-anchor="middle" x="207" y="-337.8" font-family="Times,serif" font-size="14.00" fill="#000000">33</text>
</g>
<!-- 99&#45;&gt;33 -->
<g id="edge14" class="edge">
<title>99-&gt;33</title>
<path fill="none" stroke="#000000" d="M144.003,-342C152.0277,-342 160.9665,-342 169.5309,-342"/>
<polygon fill="#000000" stroke="#000000" points="169.7051,-345.5001 179.705,-342 169.705,-338.5001 169.7051,-345.5001"/>
</g>
<!-- 495 -->
<g id="node14" class="node">
<title>495</title>
<ellipse fill="none" stroke="#000000" cx="207" cy="-288" rx="27" ry="18"/>
<text text-anchor="middle" x="207" y="-283.8" font-family="Times,serif" font-size="14.00" fill="#000000">495</text>
</g>
<!-- 99&#45;&gt;495 -->
<g id="edge15" class="edge">
<title>99-&gt;495</title>
<path fill="none" stroke="#000000" d="M137.4224,-329.7466C149.3897,-322.5662 164.7024,-313.3785 177.9143,-305.4514"/>
<polygon fill="#000000" stroke="#000000" points="179.8842,-308.3512 186.6584,-300.2049 176.2827,-302.3487 179.8842,-308.3512"/>
</g>
<!-- 51 -->
<g id="node8" class="node">
<title>51</title>
<ellipse fill="#00ff00" stroke="#000000" cx="207" cy="-234" rx="27" ry="18"/>
<text text-anchor="middle" x="207" y="-229.8" font-family="Times,serif" font-size="14.00" fill="#000000">51</text>
</g>
<!-- 50&#45;&gt;51 -->
<g id="edge8" class="edge">
<title>50-&gt;51</title>
<path fill="none" stroke="#000000" d="M137.4224,-192.2534C149.3897,-199.4338 164.7024,-208.6215 177.9143,-216.5486"/>
<polygon fill="#000000" stroke="#000000" points="176.2827,-219.6513 186.6584,-221.7951 179.8842,-213.6488 176.2827,-219.6513"/>
</g>
<!-- 49 -->
<g id="node9" class="node">
<title>49</title>
<ellipse fill="none" stroke="#000000" cx="207" cy="-180" rx="27" ry="18"/>
<text text-anchor="middle" x="207" y="-175.8" font-family="Times,serif" font-size="14.00" fill="#000000">49</text>
</g>
<!-- 50&#45;&gt;49 -->
<g id="edge9" class="edge">
<title>50-&gt;49</title>
<path fill="none" stroke="#000000" d="M144.003,-180C152.0277,-180 160.9665,-180 169.5309,-180"/>
<polygon fill="#000000" stroke="#000000" points="169.7051,-183.5001 179.705,-180 169.705,-176.5001 169.7051,-183.5001"/>
</g>
<!-- 25 -->
<g id="node10" class="node">
<title>25</title>
<ellipse fill="none" stroke="#000000" cx="207" cy="-126" rx="27" ry="18"/>
<text text-anchor="middle" x="207" y="-121.8" font-family="Times,serif" font-size="14.00" fill="#000000">25</text>
</g>
<!-- 50&#45;&gt;25 -->
<g id="edge10" class="edge">
<title>50-&gt;25</title>
<path fill="none" stroke="#000000" d="M137.4224,-167.7466C149.3897,-160.5662 164.7024,-151.3785 177.9143,-143.4514"/>
<polygon fill="#000000" stroke="#000000" points="179.8842,-146.3512 186.6584,-138.2049 176.2827,-140.3487 179.8842,-146.3512"/>
</g>
<!-- 250 -->
<g id="node11" class="node">
<title>250</title>
<ellipse fill="none" stroke="#000000" cx="207" cy="-72" rx="27" ry="18"/>
<text text-anchor="middle" x="207" y="-67.8" font-family="Times,serif" font-size="14.00" fill="#000000">250</text>
</g>
<!-- 50&#45;&gt;250 -->
<g id="edge11" class="edge">
<title>50-&gt;250</title>
<path fill="none" stroke="#000000" d="M128.7461,-163.6985C140.9937,-146.9964 161.0178,-120.5027 180,-99 181.3491,-97.4718 182.7636,-95.9212 184.2084,-94.3756"/>
<polygon fill="#000000" stroke="#000000" points="187.0841,-96.4369 191.5218,-86.8162 182.0531,-91.5696 187.0841,-96.4369"/>
</g>
<!-- etc. -->
<g id="node15" class="node">
<title>etc.</title>
<ellipse fill="none" stroke="#000000" cx="207" cy="-18" rx="27" ry="18"/>
<text text-anchor="middle" x="207" y="-13.8" font-family="Times,serif" font-size="14.00" fill="#000000">etc.</text>
</g>
<!-- 500&#45;&gt;etc. -->
<g id="edge16" class="edge">
<title>500-&gt;etc.</title>
<path fill="none" stroke="#000000" d="M137.4224,-59.7466C149.3897,-52.5662 164.7024,-43.3785 177.9143,-35.4514"/>
<polygon fill="#000000" stroke="#000000" points="179.8842,-38.3512 186.6584,-30.2049 176.2827,-32.3487 179.8842,-38.3512"/>
</g>
</g>
</svg>